<?xml version="1.0" encoding="UTF-8" standalone="no"?>
<!-- Created with Inkscape (http://www.inkscape.org/) -->

<svg
   width="28.408106mm"
   height="29.590656mm"
   viewBox="0 0 28.408106 29.590657"
   version="1.1"
   id="svg1"
   xml:space="preserve"
   inkscape:export-filename="favicon.svg"
   inkscape:export-xdpi="96"
   inkscape:export-ydpi="96"
   xmlns:inkscape="http://www.inkscape.org/namespaces/inkscape"
   xmlns:sodipodi="http://sodipodi.sourceforge.net/DTD/sodipodi-0.dtd"
   xmlns="http://www.w3.org/2000/svg"
   xmlns:svg="http://www.w3.org/2000/svg"><sodipodi:namedview
     id="namedview1"
     pagecolor="#ffffff"
     bordercolor="#000000"
     borderopacity="0.25"
     inkscape:showpageshadow="2"
     inkscape:pageopacity="0.0"
     inkscape:pagecheckerboard="0"
     inkscape:deskcolor="#d1d1d1"
     inkscape:document-units="mm" /><defs
     id="defs1"><clipPath
       clipPathUnits="userSpaceOnUse"
       id="clipPath3"><rect
         style="opacity:0.7;fill:#ff0000;stroke-width:0.264583"
         id="rect4"
         width="32.190071"
         height="33.411362"
         x="23.412189"
         y="49.460255" /></clipPath><clipPath
       clipPathUnits="userSpaceOnUse"
       id="clipPath5"><path
         style="fill:#000000"
         d="m 147.51175,300.06397 c 0.191,-0.0764 0.4192,-0.067 0.50712,0.0209 0.0879,0.0879 -0.0683,0.15045 -0.34726,0.13897 -0.30823,-0.0127 -0.37092,-0.0754 -0.15986,-0.15986 z m -3.12539,-0.34457 c -0.48606,-0.15284 -0.29316,-0.19846 0.72751,-0.17207 0.76393,0.0198 1.38901,0.12522 1.38906,0.23436 1.3e-4,0.24937 -1.24161,0.21282 -2.11657,-0.0623 z m 4.97657,0.0726 c 0.33601,-0.0631 0.67617,-0.28465 0.75591,-0.49244 0.0797,-0.20779 0.37036,-0.37779 0.64583,-0.37779 0.73777,0 0.65532,-0.99178 -0.0944,-1.13619 l -0.59531,-0.11467 0.59531,-0.036 c 0.70497,-0.0427 0.79325,-0.47467 0.13229,-0.6474 -0.25466,-0.0666 0.16206,-0.13481 0.92604,-0.15169 0.77011,-0.017 1.38906,0.0872 1.38906,0.23389 0,0.14552 0.20836,0.27296 0.46302,0.28318 0.39594,0.0159 0.38635,0.0515 -0.0661,0.24599 -0.59861,0.25723 -0.13784,0.35164 0.50753,0.10398 0.53059,-0.2036 0.54905,-0.89773 0.0239,-0.89773 -0.21705,0 -0.54335,-0.23812 -0.72511,-0.52917 -0.19522,-0.3126 -0.60219,-0.52155 -0.99443,-0.51057 -0.5802,0.0163 -0.59942,0.0439 -0.15235,0.21895 0.91576,0.35861 0.0505,0.52134 -3.63909,0.68444 -3.12518,0.13815 -3.6485,0.10377 -3.78369,-0.24854 -0.0863,-0.22487 -0.27025,-0.40886 -0.40879,-0.40886 -0.13854,0 -0.19335,0.0947 -0.1218,0.21048 0.14769,0.23898 -0.88612,0.26305 -1.28948,0.03 -0.5672,-0.32768 -2.68942,-0.26931 -2.98097,0.082 -0.36979,0.44556 -0.1399,0.78637 0.81308,1.20538 0.44986,0.19779 0.66839,0.44641 0.55443,0.6308 -0.12421,0.20098 -0.0705,0.23164 0.15825,0.0903 0.22946,-0.14182 0.28249,-0.11073 0.15712,0.0921 -0.14297,0.23131 -0.33086,0.23166 -0.76849,10e-4 -0.96247,-0.50636 -1.76227,-1.2036 -1.58452,-1.38135 0.0921,-0.0921 -0.0218,-0.16742 -0.25304,-0.16742 -0.49216,0 -2.60235,-2.31174 -3.50197,-3.83646 -2.05135,-3.47673 -1.95579,-9.98003 0.20023,-13.62604 2.56572,-4.33886 7.25962,-7.14375 11.95482,-7.14375 5.79266,0 11.28428,4.14529 12.74136,9.61766 0.19953,0.7494 0.3642,1.56634 0.36593,1.81541 0.008,1.19272 -5.64711,5.43438 -10.38466,7.78873 -1.39295,0.69223 -3.20069,0.7725 -4.56116,0.20253 -0.97325,-0.40775 -2.40277,-1.78326 -2.98456,-2.87179 -0.59666,-1.11634 -0.57179,-3.724 0.0466,-4.88475 0.96352,-1.80862 3.04226,-3.20578 4.75623,-3.19677 0.9891,0.005 2.94425,1.05061 2.94425,1.57427 0,0.20414 -0.65562,0.75427 -1.45694,1.2225 -1.89746,1.10873 -2.33277,1.62103 -2.43088,2.86079 -0.0663,0.83814 0.04,1.11346 0.5891,1.52553 0.64548,0.4844 0.71543,0.48599 1.90971,0.0434 1.8057,-0.66924 5.26474,-3.22902 5.86029,-4.33675 0.7976,-1.48358 0.4334,-2.66192 -1.38468,-4.48 -1.75812,-1.75812 -3.49938,-2.47428 -6.02738,-2.479 -3.04124,-0.006 -6.04821,1.69018 -7.79845,4.39814 -1.21641,1.88202 -1.68015,3.89143 -1.48747,6.44525 0.15814,2.09592 0.75904,3.52152 2.27058,5.38675 0.52816,0.65175 0.92757,1.28567 0.88759,1.40873 -0.04,0.12306 0.0312,0.1595 0.15828,0.081 0.12704,-0.0785 0.99319,0.2598 1.92478,0.75181 0.93159,0.49202 2.24515,0.97551 2.91902,1.07444 1.49184,0.21902 3.86632,-0.23984 5.6237,-1.08674 0.71097,-0.34262 1.42535,-0.54729 1.5875,-0.45481 0.16216,0.0925 0.20487,0.069 0.0949,-0.0521 -0.26276,-0.28954 1.95022,-1.75575 2.39647,-1.58778 0.18946,0.0713 0.27978,0.025 0.20071,-0.10295 -0.22023,-0.35633 1.08413,-1.09857 1.62377,-0.92401 0.39868,0.12897 0.4118,0.10745 0.08,-0.13122 -0.35647,-0.25642 -0.20124,-0.40892 0.33073,-0.32493 0.10914,0.0172 0.19843,-0.0948 0.19843,-0.24886 0,-0.15411 0.11907,-0.20662 0.26459,-0.11668 0.14552,0.0899 0.26533,0.0672 0.26625,-0.0505 9.2e-4,-0.11773 0.36754,-0.42229 0.81471,-0.6768 l 0.81304,-0.46275 -0.17735,0.85962 c -0.35737,1.73215 -1.42268,3.59408 -2.94012,5.1387 -2.37774,2.42034 -4.88431,3.67625 -7.7684,3.89233 -0.65702,0.0492 -0.91967,0.0379 -0.58365,-0.0251 z m 4.21219,-1.29467 c -0.0879,-0.0879 -0.31612,-0.0973 -0.50712,-0.0209 -0.21106,0.0845 -0.14837,0.14716 0.15986,0.15986 0.27891,0.0115 0.43518,-0.051 0.34726,-0.13897 z m -0.72209,-0.52991 c 0,-0.0572 -0.17859,-0.10399 -0.39688,-0.10399 -0.21828,0 -0.39687,0.11533 -0.39687,0.25628 0,0.14096 0.17859,0.18775 0.39687,0.10399 0.21829,-0.0838 0.39688,-0.19909 0.39688,-0.25628 z m 2.11667,-0.10399 c 0.3638,-0.28457 0.56117,-0.52004 0.4386,-0.52328 -0.12256,-0.003 -0.52557,0.23224 -0.89557,0.52328 -0.37,0.29105 -0.56738,0.52652 -0.43861,0.52329 0.12876,-0.003 0.53177,-0.23872 0.89558,-0.52329 z m -15.34583,-1.79628 c 0,-0.31238 -0.075,-0.32293 -0.39688,-0.0558 -0.44425,0.36869 -0.54229,0.0158 -0.13229,-0.47625 0.19243,-0.23091 0.17799,-0.24534 -0.0529,-0.0529 -0.37667,0.3139 -0.82706,0.35357 -0.64358,0.0567 0.0707,-0.11434 -0.10063,-0.20789 -0.38065,-0.20789 -0.44141,0 -0.4156,0.0746 0.19402,0.56067 0.81688,0.65135 1.41229,0.72534 1.41229,0.17549 z m 15.67656,-0.9354 c 0.40018,0.005 0.7276,-0.0921 0.7276,-0.21671 0,-0.40953 -1.61546,-0.23653 -2.06942,0.22161 -0.41623,0.42007 -0.41089,0.43368 0.085,0.21671 0.29105,-0.12733 0.85659,-0.22705 1.25678,-0.22161 z m 0.59531,-1.23707 c 0.0899,-0.14552 0.0445,-0.26458 -0.10106,-0.26458 -0.14552,0 -0.33817,0.11906 -0.42811,0.26458 -0.0899,0.14552 -0.0445,0.26459 0.10106,0.26459 0.14552,0 0.33817,-0.11907 0.42811,-0.26459 z m 2.97656,-0.9343 c -0.0364,-0.0288 -0.3484,-0.19942 -0.69339,-0.37917 -0.50428,-0.26276 -0.58654,-0.26097 -0.41961,0.009 0.14837,0.24008 0.0781,0.28623 -0.2464,0.16172 -0.24971,-0.0958 -0.39354,-0.0764 -0.31963,0.0432 0.0739,0.1196 0.49682,0.21746 0.93979,0.21746 0.44296,0 0.77562,-0.0236 0.73924,-0.0524 z m -13.81748,-3.24793 c -0.0815,-0.0815 -0.29495,-1.7e-4 -0.47443,0.18065 -0.25936,0.26131 -0.22897,0.2917 0.14811,0.14811 0.26094,-0.0993 0.40779,-0.2473 0.32632,-0.32876 z m -107.290055,8.92263 c -4.193725,-1.45059 -6.560173,-2.798 -8.762628,-4.98928 -2.351717,-2.33978 -3.115896,-3.97968 -3.340911,-7.16947 -0.261682,-3.70958 0.880223,-6.82035 3.419925,-9.31654 0.85133,-0.83675 1.72904,-1.52136 1.950468,-1.52136 0.221429,0 1.312185,0.49922 2.423903,1.10936 l 2.021306,1.10936 -0.886383,0.67658 c -3.635483,2.77498 -4.642821,4.4937 -4.444544,7.58328 0.139501,2.17373 0.883833,3.71771 2.458976,5.10071 1.295216,1.13721 6.029041,3.478 7.357444,3.63812 1.287133,0.15515 5.999052,2.40142 5.999052,2.85988 0,0.4286 -3.858174,1.74743 -5.027084,1.71839 -0.509322,-0.0127 -1.935609,-0.37222 -3.169524,-0.79903 z m 104.424145,0.35553 c -0.26271,-0.0623 -0.42763,-0.25211 -0.36648,-0.42179 0.0611,-0.16968 0.001,-0.52232 -0.13343,-0.78363 -0.2196,-0.42654 -0.18857,-0.44012 0.30347,-0.13284 0.30144,0.18826 0.48579,0.50462 0.40966,0.70302 -0.0938,0.24441 -0.002,0.30857 0.28308,0.19898 0.23184,-0.089 0.53084,-0.16175 0.66446,-0.16175 0.51279,0 0.21014,-0.43949 -0.48466,-0.70381 -0.63232,-0.24055 -0.55591,-0.26321 0.58355,-0.17308 1.56726,0.12397 1.74858,0.24419 0.90835,0.60223 -0.3476,0.14813 -0.87013,0.43056 -1.16117,0.62764 -0.29104,0.19707 -0.74411,0.30733 -1.00683,0.24503 z m 1.93287,-1.92093 c -0.21828,-0.14106 -0.27781,-0.25648 -0.13229,-0.25648 0.14552,0 0.44318,0.11542 0.66146,0.25648 0.21828,0.14107 0.27781,0.25648 0.13229,0.25648 -0.14552,0 -0.44318,-0.11541 -0.66146,-0.25648 z m 3.46163,0.16911 c 0.0606,-0.0525 0.64603,-0.16631 1.30087,-0.2529 0.79502,-0.10512 1.0148,-0.0796 0.66146,0.0769 -0.50532,0.22374 -2.19215,0.37506 -1.96233,0.17602 z m -96.321199,-2.26055 c -1.086361,-0.56567 -2.014861,-1.14747 -2.063333,-1.29288 -0.08786,-0.26359 3.732465,-2.96565 4.192994,-2.96565 0.133329,0 0.242417,1.19063 0.242417,2.64584 0,1.45521 -0.0893,2.64478 -0.198437,2.6435 -0.109141,-10e-4 -1.087279,-0.46514 -2.173641,-1.03081 z m 150.009569,0.51959 c 0,-0.13693 0.0992,-0.31029 0.22048,-0.38524 0.12127,-0.075 0.22049,0.0371 0.22049,0.24897 0,0.21188 -0.0992,0.38524 -0.22049,0.38524 -0.12126,0 -0.22048,-0.11204 -0.22048,-0.24897 z M 88.759074,294.7292 c -0.599117,-0.26461 -0.991372,-0.62066 -0.992188,-0.90063 -7.42e-4,-0.25466 0.117714,-0.46302 0.263235,-0.46302 0.145521,0 0.264583,0.17859 0.264583,0.39687 0,0.21828 0.0893,0.37797 0.198437,0.35487 0.109141,-0.0231 0.411932,0.0511 0.67287,0.16498 0.260937,0.11384 0.548672,0.13274 0.639409,0.042 0.09074,-0.0907 -0.03346,-0.16497 -0.275994,-0.16497 -0.589877,0 -0.568783,-0.52404 0.02205,-0.54777 0.398265,-0.016 0.390363,-0.047 -0.0565,-0.22172 -0.466131,-0.18224 -0.443266,-0.22226 0.222494,-0.38935 0.513462,-0.12887 0.69516,-0.30834 0.589894,-0.58266 -0.103377,-0.2694 -0.0082,-0.37182 0.297081,-0.31965 0.277751,0.0475 0.48354,-0.1252 0.539164,-0.45239 0.06703,-0.39427 0.02732,-0.43766 -0.155773,-0.17019 -0.182482,0.26657 -0.295117,0.27907 -0.437592,0.0485 -0.105522,-0.17074 -0.150171,-0.34137 -0.09922,-0.37918 0.870184,-0.6457 2.13729,-1.21294 2.377654,-1.06439 0.175985,0.10876 0.239991,0.078 0.147875,-0.071 -0.08933,-0.14454 0.295441,-0.52012 0.85504,-0.83463 1.16197,-0.65307 1.454564,-0.71269 1.183183,-0.24111 -0.110578,0.19215 -0.08941,0.23834 0.05053,0.11024 0.132471,-0.12127 0.240857,-0.34979 0.240857,-0.50783 0,-0.15805 0.47625,-0.54075 1.058333,-0.85046 3.042272,-1.6187 3.552639,-2.01838 3.720594,-2.91364 0.0908,-0.48391 0.10205,-1.51575 0.0251,-2.29298 -0.112981,-1.14029 -0.283757,-1.5278 -0.884494,-2.00705 -1.182304,-0.94319 -6.316217,-3.51068 -7.019917,-3.51068 -0.70552,0 -4.939083,2.42314 -5.883379,3.36744 -0.551973,0.55197 -0.613976,0.9347 -0.815053,5.03113 -0.119698,2.43855 -0.226107,4.74599 -0.236464,5.12764 -0.01316,0.48507 -0.131434,0.65071 -0.392965,0.55035 -0.236591,-0.0908 -0.30449,-0.0309 -0.184695,0.16295 0.123082,0.19915 0.04799,0.25223 -0.214381,0.15155 -0.337852,-0.12964 -0.345805,-0.21297 -0.04869,-0.51009 0.368742,-0.36874 0.538325,-3.29764 0.190933,-3.29764 -0.104851,0 -0.368825,0.68411 -0.586609,1.52024 -0.437842,1.68099 -1.111054,2.14914 -1.551766,1.07909 -0.222026,-0.53907 -0.247973,-0.49442 -0.210282,0.36187 0.03435,0.78033 0.165375,1.00753 0.651412,1.12952 0.334629,0.084 0.608416,0.28223 0.608416,0.44055 0,0.17037 -0.188972,0.21005 -0.463021,0.0972 -0.254661,-0.10484 -0.677106,-0.25202 -0.938766,-0.32708 -0.44426,-0.12742 -0.470526,-0.57083 -0.396875,-6.69997 l 0.07887,-6.56352 0.764084,-0.79704 c 0.711843,-0.74254 4.161795,-2.88449 8.03929,-4.9913 l 1.659625,-0.90175 2.706,1.50895 c 5.416877,3.0206 7.573317,4.37689 8.263787,5.19746 l 0.70473,0.83753 -0.0885,4.21739 c -0.081,3.85627 -0.13386,4.25034 -0.61772,4.60213 -1.83746,1.33592 -12.215234,6.95789 -12.803785,6.93621 -0.379479,-0.014 -1.135838,-0.22234 -1.680799,-0.46302 z m 2.446047,-0.8418 c 0,-0.13236 -0.17791,-0.17239 -0.395356,-0.0889 -0.217445,0.0834 -0.328281,0.26024 -0.246301,0.39289 0.171466,0.27744 0.641657,0.0547 0.641657,-0.30394 z m 156.740489,0.31574 c -1.99694,-1.29667 -3.40266,-2.73987 -4.29495,-4.40947 -0.65803,-1.23126 -0.70701,-1.55204 -0.70701,-4.63021 0,-3.19905 0.0283,-3.36522 0.86594,-5.07758 0.9869,-2.01757 2.89091,-4.05381 5.18126,-5.5411 1.92807,-1.25203 5.39638,-2.61048 6.66493,-2.61048 1.15013,0 5.57283,2.16307 9.62993,4.70984 4.20944,2.6424 3.98398,2.33747 3.98398,5.38828 v 2.59437 l -1.12448,0.71011 c -0.61846,0.39056 -1.5476,0.98756 -2.06474,1.32667 -0.51715,0.33911 -0.9934,0.616 -1.05833,0.61532 -0.0649,-6.8e-4 -0.13007,-1.25818 -0.14474,-2.79443 -0.0224,-2.35021 -0.11037,-2.906 -0.55451,-3.50449 -0.69881,-0.94168 -2.10863,-1.89182 -4.84278,-3.26377 -3.04218,-1.52652 -4.37324,-1.54782 -7.08416,-0.11337 -4.49162,2.3767 -6.31453,6.28913 -4.80727,10.31764 0.58563,1.56524 2.65435,3.72054 3.862,4.02364 0.60164,0.151 0.61113,0.18221 0.16652,0.5478 -0.37855,0.31126 -0.38835,0.3621 -0.0497,0.25793 0.32367,-0.0996 0.39377,0.0164 0.30152,0.49901 -0.0661,0.34581 -0.37494,0.70921 -0.6863,0.80755 -0.31136,0.0983 -0.72168,0.39986 -0.91184,0.67002 -0.19015,0.27017 -0.43958,0.49121 -0.55429,0.49121 -0.11471,0 -0.91163,-0.45652 -1.77093,-1.01449 z m 1.72403,-0.37457 c -0.0115,-0.32742 -0.0809,-0.44649 -0.15434,-0.26459 -0.0734,0.18191 -0.30915,0.33073 -0.5239,0.33073 -0.21474,0 -0.31685,0.11907 -0.22692,0.26459 0.30978,0.50123 0.92644,0.27591 0.90516,-0.33073 z m -52.4989,0.85989 c -0.0899,-0.14552 -0.0374,-0.26458 0.11667,-0.26458 0.15411,0 0.2802,0.11906 0.2802,0.26458 0,0.14552 -0.0525,0.26459 -0.11668,0.26459 -0.0642,0 -0.19026,-0.11907 -0.28019,-0.26459 z m -1.91823,-0.96897 c -0.37848,-0.15272 -0.44961,-0.61853 -0.0945,-0.61853 0.12996,0 0.30481,0.1786 0.38857,0.39688 0.0838,0.21828 0.12627,0.38747 0.0945,0.37599 -0.0318,-0.0115 -0.20667,-0.081 -0.38857,-0.15434 z m 9.19427,-0.0581 c 0,-0.14552 0.11906,-0.33817 0.26458,-0.4281 0.14552,-0.0899 0.26458,-0.0445 0.26458,0.10106 0,0.14552 -0.11906,0.33817 -0.26458,0.4281 -0.14552,0.0899 -0.26458,0.0445 -0.26458,-0.10106 z m 0.85989,-0.61713 c 0.0598,-0.29025 1.10052,-1.0016 1.46543,-1.0016 0.0815,0 -0.13147,0.29766 -0.47324,0.66146 -0.66809,0.71115 -1.09897,0.85886 -0.99219,0.34014 z M 88.030121,292.73649 c 0,-0.055 0.208359,-0.26331 0.46302,-0.46303 0.419644,-0.3291 0.429003,-0.31974 0.09989,0.0999 -0.345643,0.44073 -0.562915,0.58089 -0.562915,0.36313 z m 1.008724,-0.0808 c 0.190996,-0.0764 0.419199,-0.067 0.507118,0.0209 0.08792,0.0879 -0.06835,0.15045 -0.347266,0.13896 -0.308224,-0.0127 -0.370919,-0.0754 -0.159852,-0.15985 z m 103.527795,-0.49514 c -0.49496,-0.21481 -0.84171,-0.4488 -0.77056,-0.51995 0.13527,-0.13527 1.80278,0.62167 1.80278,0.81833 0,0.15004 0.003,0.15087 -1.03222,-0.29838 z M 41.595748,291.23464 c -0.727604,-0.41315 -1.322917,-0.90638 -1.322917,-1.09607 0,-0.1897 1.751925,-1.51396 3.893167,-2.94281 l 3.893166,-2.59792 1.752333,0.97996 c 1.695077,0.94795 1.73645,0.99555 1.266209,1.45706 -0.685746,0.67301 -7.56356,5.01376 -7.889684,4.97936 -0.148147,-0.0156 -0.86467,-0.36643 -1.592274,-0.77958 z m 42.068748,0.27882 c -0.436563,-0.28912 -0.674688,-0.52381 -0.529167,-0.52154 0.265284,0.004 1.703847,1.0353 1.455209,1.04308 -0.07276,0.002 -0.48948,-0.23241 -0.926042,-0.52154 z m 5.820833,0.26459 c 0.08994,-0.14552 0.282584,-0.26459 0.428105,-0.26459 0.145521,0 0.190998,0.11907 0.101062,0.26459 -0.08994,0.14552 -0.282584,0.26458 -0.428105,0.26458 -0.145521,0 -0.190999,-0.11906 -0.101062,-0.26458 z m 100.959951,-0.90324 c -0.58802,-0.62593 -0.59817,-0.74065 -0.50914,-5.75469 0.0898,-5.05654 0.0994,-5.13038 0.83047,-6.35041 0.40679,-0.6789 1.26346,-1.69093 1.90372,-2.24895 1.71892,-1.49814 7.33163,-4.81758 7.81169,-4.61995 0.22148,0.0912 2.5827,1.40315 5.24714,2.91549 3.52993,2.0036 4.74908,2.81804 4.49301,3.00152 -0.25333,0.18152 -0.2107,0.20583 0.15272,0.0871 0.74071,-0.24202 1.74578,0.80567 1.74075,1.81458 -0.003,0.63548 -0.0629,0.72682 -0.27262,0.4169 -0.20128,-0.29744 -0.22804,-0.22181 -0.1068,0.30187 0.0908,0.39227 0.0363,0.77627 -0.12425,0.87551 -0.15732,0.0972 -0.30391,0.73529 -0.32577,1.41792 l -0.0397,1.24116 -0.16047,-1.19063 c -0.15044,-1.11619 -0.18125,-1.15408 -0.493,-0.60603 -0.18289,0.32153 -0.36638,1.43441 -0.40774,2.47308 -0.0577,1.45002 -0.17978,1.947 -0.5256,2.14053 -0.24771,0.13863 -0.45909,0.15684 -0.46974,0.0405 -0.0425,-0.46425 0.0557,-3.96055 0.13014,-4.63599 0.0437,-0.39612 -0.0229,-0.65699 -0.14798,-0.57969 -0.12506,0.0773 -0.22739,-0.002 -0.22739,-0.17664 0,-0.17445 -0.20836,-0.48342 -0.46302,-0.68661 -0.54896,-0.43799 -3.25968,-1.74919 -3.36215,-1.6263 -0.0391,0.0469 -0.18806,0.4425 -0.33097,0.87906 -0.21376,0.65296 -0.40354,0.79356 -1.06997,0.79266 -0.44556,-6e-4 -0.75096,0.0946 -0.67865,0.21163 0.23305,0.37708 -3.98505,-0.11458 -4.96677,-0.57892 -1.29884,-0.61435 -2.98364,-0.68761 -3.51826,-0.15299 -0.23255,0.23255 -0.54756,0.34572 -0.70003,0.25149 -0.1815,-0.11218 -0.22049,0.0875 -0.11292,0.57844 0.12578,0.574 0.0982,0.65673 -0.11764,0.3529 -0.22605,-0.31821 -0.28643,-0.23955 -0.30463,0.39687 -0.0194,0.67925 -0.10975,0.56865 -0.62622,-0.76673 l -0.60353,-1.56049 -0.0314,2.61882 c -0.0366,3.04782 -0.18632,5.09515 -0.38736,5.2962 -0.078,0.078 -0.29042,-0.52228 -0.47206,-1.33394 -0.18164,-0.81165 -0.43037,-1.47573 -0.55274,-1.47573 -0.12236,0 -0.22248,0.65484 -0.22248,1.45521 0,1.10159 0.0942,1.4552 0.38757,1.4552 0.50951,0 1.1381,1.12304 0.70871,1.26618 -0.16639,0.0555 -0.30253,0.21701 -0.30253,0.35899 0,0.14198 0.0992,0.19683 0.22049,0.12188 0.12126,-0.075 0.22615,0.007 0.23307,0.18282 0.007,0.1755 0.0987,0.52645 0.20384,0.77988 0.12736,0.30685 0.05,0.515 -0.23155,0.62304 -0.23255,0.0892 -0.35694,0.26883 -0.27642,0.3991 0.30542,0.49419 -0.34734,0.20965 -0.92176,-0.40179 z m 0.48273,-0.91026 c -0.39103,-0.1344 -0.58966,0.13816 -0.36528,0.50123 0.14226,0.23017 0.24952,0.21762 0.41489,-0.0486 0.131,-0.21085 0.11053,-0.39764 -0.0496,-0.45268 z m 2.05784,-9.34861 c -0.0845,-0.21107 -0.14715,-0.14837 -0.15985,0.15985 -0.0115,0.27892 0.051,0.43519 0.13896,0.34727 0.0879,-0.0879 0.0973,-0.31613 0.0209,-0.50712 z m -0.60895,-3.00684 c 0.0904,-0.23546 0.046,-0.34166 -0.10399,-0.24897 -0.14385,0.0889 -0.26155,0.27368 -0.26155,0.41062 0,0.38058 0.18965,0.29672 0.36554,-0.16165 z m 5.19071,13.27121 c 0,-0.0572 0.17859,-0.17251 0.39688,-0.25628 0.21828,-0.0838 0.39687,-0.037 0.39687,0.10399 0,0.14095 -0.17859,0.25628 -0.39687,0.25628 -0.21829,0 -0.39688,-0.0468 -0.39688,-0.10399 z m -1.25677,-0.34732 c -0.32742,-0.0631 -0.59531,-0.21742 -0.59531,-0.34302 0,-0.12559 -0.23813,-0.30392 -0.52917,-0.3963 -0.29104,-0.0924 -0.52917,-0.2887 -0.52917,-0.43628 0,-0.14758 0.44649,-0.001 0.99219,0.32475 0.9167,0.54797 1.65644,1.08646 1.37584,1.00154 -0.0655,-0.0198 -0.38696,-0.0876 -0.71438,-0.15069 z m 13.06734,-0.47473 c -0.0838,-0.21829 -0.33463,-0.39688 -0.55747,-0.39688 -0.22285,0 -0.40518,-0.11341 -0.40518,-0.25201 0,-0.13861 0.3538,-0.20724 0.78622,-0.15251 1.23897,0.1568 1.88104,0.42038 1.70761,0.701 -0.0998,0.16147 -0.30212,0.14018 -0.53941,-0.0568 -0.20884,-0.17333 -0.46268,-0.23216 -0.56409,-0.13075 -0.10141,0.1014 -0.009,0.29514 0.20483,0.43052 0.33199,0.20996 0.3253,0.24674 -0.0455,0.2502 -0.23909,0.002 -0.50325,-0.17454 -0.58701,-0.39282 z m -3.07932,0.007 c 0,-0.29087 1.56787,-0.91407 1.71219,-0.68056 0.0851,0.13769 -0.0789,0.37538 -0.36447,0.5282 -0.53203,0.28474 -1.34772,0.37695 -1.34772,0.15236 z m -8.06712,-0.40799 c 0.0914,-0.14789 0.27702,-0.20039 0.41249,-0.11667 0.36698,0.22681 0.29856,0.38557 -0.16619,0.38557 -0.22687,0 -0.33771,-0.121 -0.2463,-0.2689 z m 13.1824,-0.37676 c 0,-0.2108 0.123,-0.36012 0.27334,-0.33182 0.15146,0.0285 0.31954,-0.5974 0.37695,-1.40377 0.13927,-1.95602 0.36286,-2.16553 0.7338,-0.68759 0.13727,0.54691 0.10553,0.71284 -0.11078,0.57915 -0.20126,-0.12438 -0.30317,0.0709 -0.30317,0.58099 0,0.4226 -0.21828,0.9659 -0.48507,1.20734 -0.39789,0.36008 -0.48507,0.37009 -0.48507,0.0557 z m -17.91096,-0.80954 c -0.0838,-0.21829 -0.037,-0.39688 0.10399,-0.39688 0.14095,0 0.25627,0.17859 0.25627,0.39688 0,0.21828 -0.0468,0.39687 -0.10398,0.39687 -0.0572,0 -0.17252,-0.17859 -0.25628,-0.39687 z m 4.62301,-1.42017 0.0292,-1.91788 1.49205,0.1734 c 1.60228,0.18622 3.90755,0.77775 4.50436,1.15582 0.28971,0.18352 0.23694,0.30148 -0.25193,0.56312 -0.58882,0.31513 -0.88558,0.14452 -0.78304,-0.45017 0.018,-0.10413 -0.53867,-0.33998 -1.23693,-0.52411 -1.61849,-0.4268 -2.01529,-0.42663 -1.01397,4.3e-4 0.65952,0.28128 0.71011,0.36334 0.31698,0.5142 -0.25727,0.0987 -0.40301,0.0747 -0.32386,-0.0534 0.0791,-0.12807 -0.26445,-0.28053 -0.76355,-0.33879 -0.71114,-0.083 -0.93489,-0.001 -1.03428,0.37904 -0.0992,0.37953 -0.0165,0.44998 0.38041,0.324 0.44318,-0.14066 0.50724,-0.0251 0.50724,0.91517 0,1.13517 -0.56718,1.51456 -0.91663,0.61314 -0.16729,-0.43153 -0.20519,-0.4281 -0.55737,0.0504 -0.33918,0.46088 -0.37488,0.31711 -0.34867,-1.40444 z m 12.28192,1.30115 c -0.18023,-0.29162 0.76601,-0.87066 1.01534,-0.62133 0.0919,0.0919 0.16708,0.32583 0.16708,0.51986 0,0.40174 -0.94664,0.48298 -1.18242,0.10147 z m -5.05098,-0.30325 c -0.12303,-0.19906 -0.0875,-0.25244 0.0935,-0.14055 0.31997,0.19775 2.65529,-0.30187 3.1282,-0.66926 0.1805,-0.14022 0.42691,-0.0715 0.63274,0.17654 0.28191,0.33969 0.26807,0.3797 -0.0845,0.2444 -0.2319,-0.089 -0.57407,-0.0676 -0.76038,0.0476 -0.18631,0.11515 -0.51943,0.22565 -0.74027,0.24557 -0.22084,0.0199 -0.77715,0.12182 -1.23624,0.22645 -0.55232,0.12589 -0.90181,0.0817 -1.03306,-0.13071 z M 34.490383,287.49353 c -0.217421,-0.81178 -0.214845,-2.96543 0.0042,-3.53634 0.188621,-0.49154 4.754722,-3.55623 5.298448,-3.55623 0.181095,0 1.11729,0.43316 2.080435,0.96257 1.690482,0.9292 1.734353,0.97894 1.265879,1.43513 -0.499907,0.4868 -7.443504,4.90528 -8.111306,5.16154 -0.235745,0.0905 -0.434722,-0.0822 -0.537686,-0.46667 z m 158.332007,-0.32488 c -0.25609,-0.30857 -0.21442,-0.35051 0.23218,-0.23372 0.29936,0.0783 0.54429,0.24751 0.54429,0.37606 0,0.35687 -0.42715,0.27857 -0.77647,-0.14234 z m 59.35514,0.17357 c -1.80788,-1.20715 -0.48122,-4.74113 2.31542,-6.16787 l 1.00206,-0.51121 1.67544,0.68805 c 0.92149,0.37843 1.96697,0.90907 2.32328,1.17921 0.83654,0.63422 0.75687,0.7098 -3.30113,3.13143 -3.1915,1.90453 -3.49141,2.03005 -4.01507,1.68039 z m -41.05479,-0.85584 c 0,-0.50932 0.0545,-0.71768 0.121,-0.46302 0.0666,0.25466 0.0666,0.67138 0,0.92604 -0.0666,0.25466 -0.121,0.0463 -0.121,-0.46302 z M 89.91128,284.42666 c 0.02646,-1.73806 0.05596,-1.8139 0.928044,-2.38556 1.043619,-0.68411 1.73801,-0.604 3.504776,0.40435 l 1.154604,0.65896 -1.628654,1.02978 c -1.628471,1.02966 -3.576588,2.08761 -3.844139,2.08761 -0.07808,0 -0.12966,-0.80781 -0.114631,-1.79514 z m 103.2198,0.20764 c 0,-0.50933 0.0545,-0.71768 0.121,-0.46302 0.0665,0.25466 0.0665,0.67138 0,0.92604 -0.0666,0.25466 -0.121,0.0463 -0.121,-0.46302 z m -0.53897,-1.98438 c 0.005,-0.43656 0.0647,-0.58312 0.13177,-0.32569 0.0671,0.25743 0.0627,0.61462 -0.01,0.79375 -0.0725,0.17913 -0.12736,-0.0315 -0.12197,-0.46806 z m 19.63157,-0.0216 c 0.0883,-0.23018 0.17429,-0.85526 0.19102,-1.38906 l 0.0304,-0.97055 0.20243,1.05323 c 0.21686,1.12834 0.10623,1.7249 -0.3199,1.7249 -0.14552,0 -0.19231,-0.18833 -0.10398,-0.41852 z M 45.696789,278.67723 c -9.24507,-5.18956 -8.731553,-4.8893 -8.729479,-5.10424 0.0025,-0.25689 3.560139,-2.16786 4.035897,-2.16786 0.214618,0 1.209644,0.46056 2.211169,1.02348 7.438192,4.18066 9.551929,5.43425 9.956892,5.90511 0.259321,0.30152 0.46174,0.96197 0.460109,1.50124 -0.0038,1.26466 -0.28772,2.94998 -0.494728,2.9369 -0.0901,-0.006 -3.438037,-1.84827 -7.43986,-4.09463 z m 166.708371,1.04023 c 0.0127,-0.30823 0.0754,-0.37092 0.15986,-0.15986 0.0764,0.191 0.067,0.4192 -0.0209,0.50712 -0.0879,0.0879 -0.15045,-0.0684 -0.13897,-0.34726 z M 144.81879,250.5692 c 1.05619,-4.31926 2.14796,-7.85197 2.47799,-8.01822 0.21828,-0.10995 1.47126,-0.72951 2.7844,-1.37681 1.31314,-0.6473 4.82096,-2.63953 7.79514,-4.42717 7.3104,-4.39395 32.08351,-19.8893 36.51629,-22.84059 7.12398,-4.74306 11.05104,-9.82065 13.0774,-16.90876 1.04915,-3.66986 1.2101,-6.6567 1.2101,-22.45616 v -14.78674 l 1.91823,-1.41128 c 2.28615,-1.68197 5.93666,-4.14875 6.13961,-4.14875 0.0793,0 0.14206,8.30461 0.1394,18.45469 -0.005,19.54109 -0.088,21.17645 -1.30613,25.77616 -2.38538,9.00734 -6.66248,15.30767 -14.03486,20.67386 -1.75852,1.27999 -14.40837,9.30013 -28.575,18.11684 -2.69213,1.67548 -6.74026,4.19845 -8.99583,5.60662 -5.48357,3.42342 -9.52641,5.6601 -11.77396,6.51389 -2.30936,0.87727 -6.14783,1.96002 -6.94849,1.96002 -0.5237,0 -0.57902,-0.0949 -0.42429,-0.7276 z m -3.55811,-15.42892 c -0.95426,-0.37888 -6.92848,-3.99847 -6.92848,-4.19775 0,-0.31237 6.71074,-3.92734 7.6595,-4.12605 1.21795,-0.25508 4.66702,-1.74459 6.84864,-2.95764 1.66115,-0.92364 8.94234,-5.39116 19.7554,-12.1213 2.61937,-1.63032 7.50093,-4.66277 10.84791,-6.73877 7.54968,-4.68278 8.07057,-5.04138 9.54513,-6.57118 1.64844,-1.71018 2.69027,-3.94536 3.04355,-6.52975 0.15914,-1.16416 0.30882,-2.13505 0.33263,-2.15753 0.0238,-0.0225 1.59109,1.00104 3.48286,2.27448 3.37077,2.26901 3.43901,2.33433 3.41092,3.26494 -0.063,2.08619 -2.93695,6.97866 -5.56193,9.46825 -2.24072,2.12515 -2.26145,2.13857 -35.55211,23.00469 -4.94769,3.10114 -6.68623,3.98994 -11.50938,5.88396 -4.53993,1.7828 -4.61715,1.8044 -5.37464,1.50365 z m 120.90922,-2.86071 c -0.29043,-0.1841 -0.28652,-0.24919 0.0221,-0.3676 0.21389,-0.0821 0.37496,0.0158 0.37496,0.22776 0,0.20441 -0.01,0.36983 -0.0221,0.3676 -0.0121,-0.002 -0.18086,-0.10472 -0.37496,-0.22776 z m 0.74979,-0.1342 c 0,-0.0558 0.23829,-0.16375 0.52953,-0.23991 0.29125,-0.0762 0.46281,-0.0305 0.38126,0.10143 -0.14241,0.23043 -0.91079,0.34725 -0.91079,0.13848 z m 3.61597,-1.92704 c -0.26742,-0.26742 0.0781,-0.60462 0.46678,-0.45548 0.1989,0.0763 0.44024,0.0116 0.53631,-0.14385 0.10288,-0.16646 -0.0557,-0.28262 -0.38573,-0.28262 -0.30821,0 -0.49002,-0.11386 -0.40401,-0.25302 0.086,-0.13917 0.31889,-0.19067 0.51752,-0.11445 0.54949,0.21086 1.7901,-1.23602 1.43091,-1.66882 -0.20641,-0.24871 -0.20343,-0.34496 0.0107,-0.34496 0.16334,0 0.2988,-0.20836 0.30103,-0.46302 0.002,-0.25466 0.12851,-0.64161 0.28064,-0.85989 0.20486,-0.29396 0.23395,-0.15674 0.11218,0.52916 -0.12177,0.68591 -0.0927,0.82313 0.11219,0.52917 0.39377,-0.56503 0.34906,-0.12959 -0.0892,0.86839 -0.52089,1.18619 -2.52131,3.02741 -2.88933,2.65939 z m -23.7243,-3.64488 v -3.35665 l 0.83521,-0.71052 c 0.87661,-0.74574 2.50085,-1.87867 9.17022,-6.39636 l 4.0523,-2.74494 1.70239,0.83948 c 0.93631,0.46172 1.70238,0.95045 1.70238,1.08608 0,0.46664 -2.78683,2.60302 -7.03276,5.3913 -4.57916,3.00711 -5.75123,4.09085 -6.19115,5.7246 -0.23146,0.85956 -0.52786,1.19111 -1.66478,1.8622 -0.76075,0.44906 -1.65108,1.00659 -1.9785,1.23896 l -0.59531,0.42249 z M 38.023873,225.61156 c -3.56526,-2.16048 -7.226432,-4.31832 -8.135937,-4.79522 -0.909505,-0.47689 -1.653646,-0.92849 -1.653646,-1.00354 0,-0.18593 3.671326,-2.38267 3.982073,-2.38267 0.366677,0 16.390843,9.62031 16.390843,9.84045 0,0.19637 -3.015346,1.94795 -3.704167,2.15171 -0.218281,0.0646 -3.313906,-1.65026 -6.879166,-3.81073 z m 229.361337,2.3753 c 0.3281,-0.30567 0.66928,-0.48303 0.75818,-0.39414 0.0889,0.0889 -0.0678,0.33521 -0.34822,0.54736 -0.77897,0.58932 -1.08444,0.47515 -0.40996,-0.15322 z m -1.02594,-0.76714 c -0.23846,-0.15411 -0.2711,-0.2581 -0.0818,-0.26053 0.17332,-0.002 0.3887,0.11501 0.47864,0.26053 0.20302,0.32848 0.11142,0.32848 -0.39688,0 z m 0.62418,-1.2626 c 0.20934,-0.33872 1.75707,-1.48416 1.75707,-1.30036 0,0.0654 -0.43709,0.45229 -0.97132,0.85977 -0.53423,0.40747 -0.88782,0.60574 -0.78575,0.44059 z m 2.81541,-0.58949 c 0,-0.14552 -0.1786,-0.26458 -0.39688,-0.26458 -0.57356,0 -0.48781,-0.72646 0.12443,-1.05412 0.47498,-0.25421 0.51819,-0.19626 0.48629,0.65215 -0.0192,0.51212 -0.0752,0.93114 -0.12442,0.93114 -0.0492,0 -0.0894,-0.11907 -0.0894,-0.26459 z m 0,-0.79375 c 0,-0.14552 -0.11907,-0.26458 -0.26459,-0.26458 -0.14552,0 -0.26458,0.11906 -0.26458,0.26458 0,0.14552 0.11906,0.26459 0.26458,0.26459 0.14552,0 0.26459,-0.11907 0.26459,-0.26459 z m -12.26521,0.0222 -1.25107,-0.73067 1.13574,-0.74658 c 1.86136,-1.22357 6.79491,-5.17096 7.35887,-5.88792 0.83437,-1.06073 0.70907,-2.74624 -0.28863,-3.88256 -0.8767,-0.99851 -6.72074,-4.38483 -7.56724,-4.38483 -0.55327,0 -7.27579,4.16949 -11.0688,6.86518 -1.27118,0.90342 -2.47546,1.7056 -2.67619,1.78263 -0.29437,0.11296 -0.36497,-0.34369 -0.36497,-2.36079 0,-2.04846 0.0838,-2.57535 0.46302,-2.91272 0.68548,-0.60978 12.26533,-7.89014 12.99774,-8.1718 0.50361,-0.19368 0.97585,-0.0507 2.37706,0.71945 2.6983,1.48317 10.53061,6.42905 10.91552,6.89283 0.49666,0.59844 0.52813,0.97643 0.34347,4.12544 l -0.16648,2.83918 -4.13861,2.61438 c -2.27623,1.43791 -4.74154,2.91927 -5.47847,3.29191 l -1.33988,0.67754 z m -130.94462,-1.10383 c -1.67886,-0.39553 -2.93369,-1.15893 -11.83599,-7.20059 -9.31615,-6.32253 -12.66157,-8.68091 -14.6287,-10.31259 -2.277162,-1.88887 -4.722752,-5.89649 -5.64327,-9.24773 -0.471781,-1.71756 -0.853463,-11.44055 -0.44302,-11.28554 0.148596,0.0561 1.937581,1.22103 3.975522,2.58869 l 3.705348,2.48664 0.17396,2.08594 c 0.41765,5.00797 1.79475,6.58095 11.80182,13.48046 13.10742,9.03708 13.40457,9.22624 14.48838,9.2228 2.98355,-0.009 5.01667,-1.0042 19.37828,-9.48117 18.9648,-11.19399 25.65916,-15.36057 27.1698,-16.91053 1.25874,-1.2915 2.0408,-3.15037 2.30294,-5.4739 0.0977,-0.86566 0.20352,-1.59373 0.23523,-1.61792 1.7712,-1.35118 6.88365,-4.87792 7.07117,-4.87792 0.16396,0 0.2608,1.76321 0.25793,4.69635 -0.005,5.21253 -0.33322,7.38609 -1.44676,9.58355 -1.4312,2.82434 -3.33738,4.32985 -12.57156,9.92909 -2.11005,1.27945 -7.46786,4.53331 -11.90625,7.2308 -22.31948,13.565 -23.63148,14.31604 -26.20574,15.0011 -1.58391,0.42152 -4.32231,0.46925 -5.87909,0.10247 z M 25.323874,214.43092 v -2.25774 l 4.299479,-2.58035 c 5.302501,-3.18232 9.042485,-5.30803 9.71393,-5.52114 0.290847,-0.0923 0.996432,0.0866 1.648105,0.41797 1.539929,0.78298 6.976371,4.33619 7.208128,4.71118 0.102119,0.16524 0.288279,0.23701 0.41369,0.1595 0.373908,-0.23109 0.614721,0.41736 0.278771,0.75066 -0.236554,0.23469 -0.265504,0.19054 -0.122036,-0.18612 0.166239,-0.43645 0.12196,-0.45842 -0.3812,-0.18913 -0.467748,0.25033 -0.569285,0.23222 -0.569285,-0.10151 0,-0.22341 -0.131801,-0.40619 -0.292891,-0.40619 -0.16109,0 -0.227698,0.16989 -0.148019,0.37753 0.07968,0.20764 -0.04894,0.53507 -0.285814,0.72761 -0.370664,0.30128 -0.406956,0.28672 -0.260411,-0.10448 0.09365,-0.25 0.05641,-0.52492 -0.08275,-0.61093 -0.139166,-0.086 -0.253028,0.14128 -0.253028,0.50508 0,0.36381 -0.137459,0.74642 -0.305464,0.85025 -0.170864,0.1056 -0.234285,0.0736 -0.14393,-0.0726 0.09227,-0.1493 -0.169637,-0.26137 -0.610841,-0.26137 -0.703929,0 -0.732206,0.0334 -0.319091,0.37645 0.249306,0.20704 0.03657,0.13185 -0.472758,-0.1671 -2.141762,-1.2571 -4.516752,-2.41417 -4.954332,-2.4137 -0.258294,2.7e-4 -1.481657,0.61439 -2.718584,1.3647 -1.236927,0.75031 -3.915833,2.33766 -5.953125,3.52745 -2.037291,1.18978 -4.15065,2.43289 -4.696354,2.76247 l -0.992187,0.59922 z m 23.94479,-9.96918 c -2.037292,-1.28653 -3.847969,-2.46682 -4.023728,-2.62287 -0.17576,-0.15606 -0.392063,-0.28373 -0.480675,-0.28373 -0.158157,0 -1.854883,-1.19209 -2.374763,-1.66846 -0.160945,-0.14748 1.088051,-0.19677 3.188614,-0.12585 3.163198,0.10681 3.567341,0.17872 4.812363,0.85635 1.731306,0.94229 2.879516,2.06467 3.058817,2.99 0.16209,0.83651 -0.07425,3.25085 -0.314878,3.21666 -0.08887,-0.0126 -1.828458,-1.07558 -3.86575,-2.3621 z m 193.676856,2.12351 c -0.0927,-0.14998 0.0135,-0.19434 0.24897,-0.10399 0.45837,0.1759 0.54224,0.36554 0.16165,0.36554 -0.13693,0 -0.32171,-0.1177 -0.41062,-0.26155 z m 24.62667,-1.6266 c 0.0572,-0.0926 -0.1625,-0.24943 -0.48829,-0.34853 -0.39562,-0.12034 -0.47481,-0.22809 -0.23845,-0.32443 0.19463,-0.0793 0.48633,-0.0118 0.64822,0.1501 0.1619,0.16189 0.4789,0.29252 0.70446,0.29029 0.36137,-0.004 0.36294,-0.0345 0.0132,-0.26053 -0.34218,-0.22113 -0.33533,-0.25704 0.0497,-0.26053 0.26353,-0.002 0.43228,0.18574 0.4117,0.45897 -0.0219,0.29081 -0.25241,0.46302 -0.61975,0.46302 -0.32168,0 -0.53805,-0.0758 -0.48082,-0.16836 z m 2.2627,-0.79143 c -0.0385,-0.74246 -0.71576,-1.50074 -1.03461,-1.15836 -0.10563,0.11342 -0.0432,0.25937 0.13868,0.32434 0.1819,0.065 0.33073,0.25788 0.33073,0.4287 0,0.20599 -0.40311,0.27853 -1.19695,0.21539 -0.65833,-0.0524 -1.34487,0.0276 -1.52564,0.17759 -0.33083,0.27456 -0.73592,0.06 -4.74068,-2.51085 -0.83058,-0.5332 -1.44947,-1.06761 -1.37532,-1.1876 0.0742,-0.11998 -0.0379,-0.15187 -0.24903,-0.0709 -0.21112,0.081 -0.4688,0.01 -0.57263,-0.15816 -0.13145,-0.21268 0.0826,-0.28207 0.70465,-0.22848 0.49138,0.0423 1.05221,-0.0212 1.24627,-0.14109 0.49052,-0.30316 3.82035,0.0596 4.97478,0.54192 2.07108,0.86535 3.6808,2.6673 3.451,3.8631 -0.10429,0.54267 -0.11864,0.53359 -0.15125,-0.0957 z m -4.00478,-0.62771 c -0.34178,-0.3638 -0.74948,-0.66131 -0.90602,-0.66114 -0.15653,1.8e-4 0.0613,0.29784 0.48415,0.66146 0.98917,0.8507 1.22119,0.85052 0.42187,-3.2e-4 z m 0.67233,-0.37927 c -0.0959,-0.1552 -0.30101,-0.28219 -0.45576,-0.28219 -0.17544,0 -0.15537,0.15181 0.0533,0.40327 0.36288,0.43725 0.68721,0.33967 0.40244,-0.12108 z m -0.74399,-0.70662 c -0.0879,-0.0879 -0.31612,-0.0973 -0.50712,-0.0209 -0.21107,0.0845 -0.14837,0.14715 0.15985,0.15985 0.27892,0.0115 0.43519,-0.051 0.34727,-0.13896 z M 79.160249,200.95183 c -0.944201,-2.62966 -1.013783,-3.70444 -1.114805,-17.21962 l -0.100588,-13.45731 1.933778,1.56721 c 1.063578,0.86197 2.916044,2.30943 4.116591,3.21659 l 2.182812,1.64938 -0.01358,9.71155 -0.01358,9.71155 -3.437374,2.5717 c -2.083531,1.55881 -3.483016,2.44458 -3.553257,2.24895 z m 172.646941,-0.42814 c 0,-0.14098 -0.32742,-0.30592 -0.7276,-0.36655 -0.40018,-0.0606 0.10583,-0.12444 1.12448,-0.14182 1.42205,-0.0243 1.73996,0.0336 1.36921,0.2492 -0.26557,0.15443 -0.54912,0.21453 -0.6301,0.13355 -0.081,-0.081 -0.3697,-0.0282 -0.64161,0.11735 -0.31327,0.16766 -0.49438,0.17068 -0.49438,0.008 z M 138.95363,196.9848 c -1.75107,-1.19709 -5.01233,-3.4267 -7.24723,-4.95466 -7.95783,-5.44065 -10.86795,-9.87598 -10.86795,-16.56392 0,-6.78457 3.22539,-11.20489 11.43077,-15.66562 1.12093,-0.60938 2.18731,-1.10796 2.36973,-1.10796 0.56296,0 5.27043,2.92709 5.11414,3.17996 -0.081,0.13099 -0.85964,0.6179 -1.7304,1.08201 -2.98533,1.59116 -6.6656,5.49677 -8.13568,8.63381 -0.61879,1.32044 -0.71418,1.85975 -0.71418,4.03755 0,3.04852 0.38178,3.97775 2.50264,6.09119 1.28324,1.27876 9.57218,6.98067 15.96454,10.98192 2.83665,1.77558 2.85926,1.81971 1.33062,2.59591 -0.70234,0.35663 -2.50707,1.37527 -4.01051,2.26365 -1.50345,0.88839 -2.7536,1.61242 -2.77812,1.60898 -0.0245,-0.003 -1.47729,-0.98572 -3.22837,-2.18282 z m 107.29731,-7.72207 c 0,-0.3697 0.14883,-0.68737 0.33073,-0.70594 0.1819,-0.0186 0.60155,-0.062 0.93256,-0.0965 0.33101,-0.0345 0.66546,0.0402 0.74322,0.16605 0.0778,0.12583 -0.19306,0.23818 -0.60183,0.24966 -0.40877,0.0115 -0.59365,0.0812 -0.41084,0.15489 0.18281,0.0737 0.24925,0.27266 0.14765,0.44214 -0.12413,0.20704 -0.0516,0.20038 0.22113,-0.0203 0.22322,-0.18063 0.4842,-0.25009 0.57995,-0.15434 0.36594,0.36594 0.13831,0.51372 -0.88424,0.57406 -0.97338,0.0574 -1.05833,0.008 -1.05833,-0.60973 z m 3.96875,-0.14301 c 0,-0.7738 0.0325,-0.79375 1.29461,-0.79375 0.93644,0 1.33904,0.11579 1.45521,0.41851 0.38412,1.001 0.19808,1.16899 -1.29461,1.16899 -1.44051,0 -1.45521,-0.008 -1.45521,-0.79375 z m 13.66221,0.45604 c -0.28941,-0.21163 -0.39651,-0.50797 -0.28684,-0.79375 0.13957,-0.36374 0.50665,-0.45604 1.81356,-0.45604 1.56367,0 1.63857,0.0297 1.63857,0.64994 0,0.50936 -0.0758,0.58705 -0.35035,0.35917 -0.1927,-0.15992 -0.42685,-0.21427 -0.52035,-0.12077 -0.0935,0.0935 -0.0311,0.16999 0.13869,0.16999 0.16977,0 0.30868,0.11906 0.30868,0.26459 0,0.38366 -2.1974,0.32506 -2.74196,-0.0731 z m 5.65237,-0.45604 c 0,-0.52917 0.1323,-0.79375 0.39688,-0.79375 0.26458,0 0.39687,0.26458 0.39687,0.79375 0,0.52917 -0.13229,0.79375 -0.39687,0.79375 -0.26458,0 -0.39688,-0.26458 -0.39688,-0.79375 z M 52.752344,188.14958 c -0.09701,-0.097 -0.176388,-0.4542 -0.176388,-0.79375 0,-0.75975 0.691419,-0.82742 0.92529,-0.0906 0.249057,0.78471 -0.254225,1.37899 -0.748902,0.88431 z m -9.701388,-0.72134 c 0,-0.67683 0.541972,-1.03436 1.190625,-0.78545 0.218281,0.0838 0.396875,0.43721 0.396875,0.78545 0,0.52711 -0.132936,0.63315 -0.79375,0.63315 -0.660814,0 -0.79375,-0.10604 -0.79375,-0.63315 z m 3.430277,0.22506 c -0.203955,-0.24575 -0.242713,-0.50406 -0.09743,-0.64935 0.260829,-0.26082 1.760011,-0.40347 3.347881,-0.31855 0.867793,0.0464 0.992187,0.136 0.992187,0.71453 0,0.64578 -0.04626,0.66146 -1.951978,0.66146 -1.436151,0 -2.041478,-0.10784 -2.29066,-0.40809 z m -22.480276,-0.78254 c 0,-0.90399 0.0252,-0.92604 1.058334,-0.92604 1.033135,0 1.058333,0.0221 1.058333,0.92604 0,0.90399 -0.0252,0.92604 -1.058333,0.92604 -1.033135,0 -1.058334,-0.0221 -1.058334,-0.92604 z m 5.027083,0.14791 c 0,-0.97138 0.28227,-1.15472 1.225603,-0.79607 0.592671,0.22533 0.663259,0.33074 0.352932,0.52701 -0.250158,0.15822 -0.273413,0.24678 -0.06548,0.24939 0.177334,0.002 0.253892,0.18265 0.17013,0.40093 -0.08681,0.22622 -0.48142,0.39687 -0.917738,0.39687 -0.670689,0 -0.765443,-0.0963 -0.765443,-0.77813 z m 127.90082,-0.72309 c -1.44134,-0.81503 -2.7218,-1.57264 -2.84545,-1.68359 -0.12366,-0.11095 0.8286,-0.89547 2.11613,-1.74337 2.80053,-1.8443 6.18547,-4.9972 7.41314,-6.905 1.2511,-1.94419 1.77946,-4.15514 1.43642,-6.01083 -0.33712,-1.82365 -1.05334,-3.2246 -2.18486,-4.27369 -0.96087,-0.89087 -15.82932,-10.81923 -19.64074,-13.11504 -1.29442,-0.7797 -2.33807,-1.53543 -2.31923,-1.67942 0.0188,-0.14399 1.64016,-1.25608 3.60293,-2.47133 l 3.56866,-2.20953 1.19591,0.66841 c 1.45244,0.81178 13.25416,8.94724 16.01668,11.04102 5.07062,3.84314 7.35323,7.15868 7.98007,11.59124 0.58184,4.11432 -0.61314,8.51602 -3.0832,11.35693 -1.1806,1.35785 -2.90014,2.54738 -7.14583,4.94327 -1.74625,0.98542 -3.24588,1.83243 -3.33251,1.88224 -0.0866,0.0498 -1.33678,-0.57629 -2.77812,-1.39131 z m 89.32208,-3.24509 c 0,-0.68593 0.11567,-0.80766 0.90888,-0.95646 1.05775,-0.19844 1.47237,-0.0129 1.47237,0.65891 0,0.64377 -0.48187,0.9708 -1.52135,1.03249 -0.78861,0.0468 -0.8599,-0.0141 -0.8599,-0.73494 z m 4.01732,-0.21462 0.0837,-0.72761 2.17806,0.008 c 2.23853,0.009 2.91816,0.27563 2.62788,1.03208 -0.12834,0.33445 -0.62477,0.41466 -2.56625,0.41466 h -2.40713 z m 8.59449,0.55121 c -0.097,-0.097 -0.17639,-0.45193 -0.17639,-0.78871 0,-0.69944 0.89697,-1.05126 1.98437,-0.77833 1.03081,0.25871 0.9152,1.36195 -0.16536,1.57806 -1.05494,0.21099 -1.42308,0.20852 -1.64262,-0.011 z m 4.23333,0 c -0.097,-0.097 -0.17639,-0.45193 -0.17639,-0.78871 0,-0.72396 0.67753,-0.9621 2.38486,-0.83825 0.99558,0.0722 1.17738,0.17997 1.34048,0.79442 0.10378,0.39098 0.12163,0.77793 0.0397,0.8599 -0.21034,0.21035 -3.37503,0.18622 -3.58861,-0.0274 z m -66.86777,-3.75418 c -1.95662,-1.28869 -3.70166,-2.62814 -3.87786,-2.97656 -0.201,-0.39747 -0.34962,-2.26006 -0.39891,-4.99912 -0.0873,-4.84957 -0.3017,-5.6026 -2.10176,-7.38061 -0.92173,-0.91043 -20.72179,-15.11636 -30.07136,-21.57526 -1.06598,-0.73641 -3.26864,-2.34274 -4.89479,-3.56964 -4.09932,-3.09284 -4.62022,-3.3252 -6.58693,-2.93827 -2.8016,0.55118 -3.6111,1.00734 -17.53637,9.88188 -7.48882,4.7726 -9.67229,6.25608 -10.93769,7.4312 -1.67597,1.55641 -2.68835,4.40038 -2.68835,7.55208 0,0.9923 -0.11848,1.59201 -0.33073,1.67414 -0.1819,0.0704 -1.90041,1.27375 -3.8189,2.67414 -1.9185,1.4004 -3.56535,2.54617 -3.65968,2.54617 -0.0943,0 -0.12773,-2.70867 -0.0742,-6.01927 0.0879,-5.43694 0.1556,-6.18565 0.70009,-7.73906 0.73648,-2.10117 2.0674,-4.17333 3.70381,-5.76663 1.78678,-1.73972 21.3847,-14.55156 28.50755,-18.63638 5.50279,-3.15575 8.05815,-3.04166 13.5048,0.60295 3.58114,2.39631 23.65567,16.45376 34.06511,23.85454 2.31168,1.64353 4.78741,3.50994 5.50163,4.14758 1.7765,1.58604 3.61801,4.24143 4.36104,6.28844 0.59592,1.64174 0.61866,1.99094 0.61866,9.49758 0,4.28624 -0.0962,7.79317 -0.21381,7.79317 -0.1176,0 -1.81469,-1.05438 -3.77132,-2.34307 z m 49.93444,-2.8604 c -0.097,-0.097 -0.17639,-0.4542 -0.17639,-0.79375 0,-0.56445 0.11339,-0.61736 1.32291,-0.61736 1.21895,0 1.32292,0.0498 1.32292,0.63315 0,0.34823 -0.18833,0.70542 -0.41851,0.79375 -0.55873,0.2144 -1.83053,0.20461 -2.05093,-0.0158 z m 3.96875,0 c -0.097,-0.097 -0.17639,-0.51374 -0.17639,-0.92604 0,-0.74626 0.008,-0.74966 1.71979,-0.74966 1.71903,0 1.71979,3.4e-4 1.71979,0.76289 0,0.56749 -0.15248,0.80376 -0.59531,0.92243 -0.80187,0.2149 -2.44931,0.20895 -2.66788,-0.01 z m 13.31736,-0.75687 c 0,-0.55792 0.15184,-0.62839 1.71466,-0.79575 2.06045,-0.22066 2.51867,-0.0801 2.51867,0.77261 0,0.63377 -0.0456,0.64758 -2.11667,0.64149 -2.0341,-0.006 -2.11666,-0.0301 -2.11666,-0.61835 z m 6.08541,-0.14713 c 0,-1.01228 0.62324,-0.92145 0.74518,0.1086 0.0593,0.5012 -0.037,0.7072 -0.33073,0.7072 -0.2866,0 -0.41445,-0.25166 -0.41445,-0.8158 z m -9.42445,0.16701 c -0.22828,-0.59488 0.10523,-0.91143 0.8972,-0.85158 0.5244,0.0396 0.74519,0.21624 0.80659,0.64518 0.0719,0.50229 -0.0381,0.59061 -0.7359,0.59061 -0.4732,0 -0.88286,-0.16262 -0.96789,-0.38421 z M 29.475329,175.69953 c -0.628531,-0.0945 -0.73069,-0.22117 -0.661458,-0.82026 l 0.08188,-0.70851 h 3.175 c 3.145222,0 3.175837,0.006 3.264294,0.63154 0.04911,0.34734 -0.06995,0.73247 -0.264583,0.85584 -0.353612,0.22414 -4.190593,0.25252 -5.595131,0.0414 z m 8.856124,-0.0414 c -0.194633,-0.12337 -0.313695,-0.5085 -0.264583,-0.85584 0.08744,-0.61846 0.152318,-0.63318 3.132003,-0.71078 1.673489,-0.0436 3.408822,-0.0123 3.856295,0.0695 0.729092,0.13324 0.801539,0.23078 0.697574,0.93913 l -0.116013,0.79045 -3.475699,-0.004 c -1.911634,-0.002 -3.634944,-0.10499 -3.829577,-0.22836 z m 9.746586,-0.69363 c 0,-1.06263 0.5908,-1.27047 1.069398,-0.3762 0.383387,0.71637 0.144074,1.30224 -0.531927,1.30224 -0.437864,0 -0.537471,-0.17162 -0.537471,-0.92604 z m -23.900693,-3.2191 c -0.09701,-0.097 -0.176389,-0.51373 -0.176389,-0.92604 0,-0.71209 0.05966,-0.74965 1.190625,-0.74965 1.184326,0 1.190625,0.005 1.190625,0.92604 0,0.89728 -0.0315,0.92604 -1.014236,0.92604 -0.55783,0 -1.093611,-0.0794 -1.190625,-0.17639 z m 5.03792,0.0108 c -0.102974,-0.10297 -0.187226,-0.52457 -0.187226,-0.93688 0,-0.74626 0.0078,-0.74965 1.719792,-0.74965 0.945885,0 1.809088,0 1.918229,0 0.109141,0 0.198438,0.38695 0.198438,0.8599 v 0.85989 l -1.731004,0.077 c -0.952052,0.0423 -1.815255,-0.007 -1.918229,-0.11024 z m 9.386345,-0.82663 0.08372,-0.72761 3.505729,-0.0738 3.505729,-0.0738 v 0.80143 0.80143 H 42.10734 38.517891 Z m 218.151099,-1.32564 c -0.72985,-0.16493 -0.49795,-1.49265 0.28,-1.60313 0.50426,-0.0716 0.59531,0.0373 0.59531,0.71199 0,0.88209 -0.16625,1.05136 -0.87531,0.89114 z m -10.71778,-0.79098 c 0.0775,-0.67355 0.17217,-0.7276 1.27434,-0.7276 1.10218,0 1.19685,0.0541 1.27435,0.7276 0.0817,0.71012 0.0511,0.7276 -1.27435,0.7276 -1.32543,0 -1.35605,-0.0175 -1.27434,-0.7276 z m 4.18476,-0.0764 v -0.80405 l 2.31511,0.0764 c 2.30739,0.0762 2.31538,0.0789 2.39882,0.80405 l 0.0837,0.7276 h -2.39882 -2.39883 z m 8.99583,-3.82615 c 0,-0.92115 0.006,-0.92605 1.19063,-0.92605 1.18432,0 1.19062,0.005 1.19062,0.92605 0,0.92114 -0.006,0.92604 -1.19062,0.92604 -1.18433,0 -1.19063,-0.005 -1.19063,-0.92604 z m 4.07037,0.54462 c -0.36444,-0.9497 0.004,-1.3364 1.35526,-1.42169 0.72591,-0.0458 1.70711,-0.0107 2.18044,0.0781 0.74047,0.13891 0.8606,0.27057 0.8606,0.94321 v 0.78176 h -2.12497 c -1.60652,0 -2.16068,-0.0931 -2.27133,-0.38142 z m 6.1625,0.0101 c -0.0784,-0.20424 -0.0757,-0.62673 0.006,-0.93885 0.22938,-0.87715 0.991,-0.56068 1.08893,0.45248 0.068,0.70321 -0.0103,0.85773 -0.43471,0.85773 -0.28469,0 -0.58175,-0.16711 -0.66012,-0.37136 z M 24.113381,164.92547 c -0.233642,-0.9309 0.04577,-1.20566 1.226108,-1.20566 1.015289,0 1.042718,0.0244 1.042718,0.92604 0,0.90326 -0.02592,0.92604 -1.053292,0.92604 -0.896318,0 -1.077472,-0.0963 -1.215534,-0.64642 z m 5.091048,0.47003 c -0.09701,-0.097 -0.176389,-0.4542 -0.176389,-0.79375 0,-0.61627 0.0063,-0.61736 3.571875,-0.61736 h 3.571875 v 0.79375 0.79375 h -3.395486 c -1.867517,0 -3.474861,-0.0794 -3.571875,-0.17639 z m 8.819444,-0.50446 c 0,-0.86846 0.885124,-0.79116 1.010589,0.0882 0.06422,0.4501 -0.04713,0.59261 -0.46302,0.59261 -0.411845,0 -0.547569,-0.16876 -0.547569,-0.68085 z m 59.795831,-3.36797 -3.571875,-2.43356 0.0031,-4.49791 c 0.0027,-3.9653 0.07616,-4.73179 0.620187,-6.47297 1.265191,-4.04927 3.476534,-7.53978 6.333784,-9.9976 2.03076,-1.74688 2.27039,-1.90812 14.73878,-9.9173 5.09323,-3.27168 12.12825,-7.79929 15.63338,-10.06136 8.80335,-5.68131 10.67238,-6.70845 13.45856,-7.39628 4.08293,-1.00795 6.80101,-0.25236 12.82712,3.56577 1.22736,0.77765 2.27264,1.53716 2.32286,1.6878 0.1191,0.35731 -6.2463,4.66586 -6.63697,4.49237 -2.82344,-1.25387 -3.60003,-1.47433 -5.1935,-1.47433 -2.94502,0 -4.08199,0.61233 -20.10833,10.82969 -1.67349,1.06691 -6.25739,3.96152 -10.18646,6.43247 -12.16167,7.64835 -13.07014,8.37505 -14.70705,11.76443 -1.26885,2.62727 -1.55507,4.56854 -1.56023,10.5822 -0.002,2.9468 -0.0939,5.35159 -0.20303,5.34398 -0.10914,-0.008 -1.805779,-1.10894 -3.77031,-2.4474 z m 143.580546,2.28484 c -0.097,-0.097 -0.17639,-0.51373 -0.17639,-0.92604 0,-0.6982 0.0726,-0.74965 1.05833,-0.74965 1.03314,0 1.05834,0.0221 1.05834,0.92604 0,0.87313 -0.0504,0.92604 -0.88195,0.92604 -0.48507,0 -0.96132,-0.0794 -1.05833,-0.17639 z m 4.85069,-0.88194 c 0,-0.74965 0.0588,-0.79375 1.05833,-0.79375 0.99954,0 1.05834,0.0441 1.05834,0.79375 0,0.74965 -0.0588,0.79375 -1.05834,0.79375 -0.99953,0 -1.05833,-0.0441 -1.05833,-0.79375 z m 3.88056,0.61736 c -0.097,-0.097 -0.17639,-0.4542 -0.17639,-0.79375 0,-0.58796 0.0882,-0.61736 1.85208,-0.61736 1.77709,0 1.85208,0.0256 1.85208,0.63315 0,0.34823 -0.18833,0.70542 -0.41851,0.79375 -0.56429,0.21654 -2.88874,0.20474 -3.10926,-0.0158 z m -223.410275,-15.51749 -1.380774,-0.84258 -0.0083,-1.76248 -0.0083,-1.76248 5.093229,-3.17373 c 8.096326,-5.04503 8.968697,-5.58508 15.817894,-9.79209 3.570233,-2.19296 6.695623,-4.0656 6.945312,-4.16141 0.409442,-0.15712 0.45398,0.0744 0.45398,2.35956 v 2.53377 l -3.770312,2.47417 c -2.073672,1.36079 -5.374207,3.47434 -7.334522,4.69676 -1.960314,1.22243 -3.804115,2.46251 -4.097334,2.75573 -0.293219,0.29322 -0.747134,0.49687 -1.0087,0.45255 -0.459016,-0.0778 -1.608192,0.58393 -6.169855,3.55256 -2.051373,1.33498 -2.847248,2.13664 -3.055406,3.07758 -0.08128,0.36742 -0.309785,0.30432 -1.476935,-0.40791 z m 13.551606,-4.7017 c -0.417919,-0.19748 -0.362296,-0.21772 0.264584,-0.0962 0.757916,0.14687 0.769861,0.13548 0.264583,-0.2521 -0.291042,-0.22325 -0.410104,-0.41152 -0.264583,-0.41837 0.151789,-0.007 0.138793,-0.0953 -0.03049,-0.20685 -0.162288,-0.10692 -0.375539,-0.45241 -0.473891,-0.76777 -0.149715,-0.48006 -0.09235,-0.55078 0.352451,-0.43446 0.292201,0.0764 0.595168,0.34025 0.673261,0.58629 0.107336,0.33819 0.368357,0.42094 1.069548,0.33908 1.050324,-0.12262 1.253223,-0.3087 0.921625,-0.84524 -0.141473,-0.22891 -0.587517,-0.34925 -1.153259,-0.31115 -0.507407,0.0342 -0.998075,-0.0601 -1.090373,-0.2094 -0.0923,-0.14934 0.02483,-0.27153 0.260289,-0.27153 0.235458,0 0.369248,-0.0952 0.297313,-0.21163 -0.07194,-0.11639 0.09523,-0.35278 0.37147,-0.52529 0.4093,-0.25562 0.475799,-0.24471 0.359284,0.0589 -0.09561,0.24916 0.0172,0.34794 0.340519,0.29818 0.265923,-0.0409 0.570971,0.0576 0.677883,0.21885 0.113055,0.17055 0.196082,0.0497 0.198438,-0.28892 0.0022,-0.32019 -0.204308,-0.71398 -0.458969,-0.87509 -0.367744,-0.23266 -0.258855,-0.26012 0.529166,-0.13345 0.615455,0.0989 0.992188,0.0545 0.992188,-0.11709 0,-0.15212 -0.185621,-0.27657 -0.41249,-0.27657 -0.22687,0 -0.333889,-0.12718 -0.237821,-0.28263 0.09607,-0.15544 0.34122,-0.21871 0.544782,-0.14059 0.203561,0.0781 0.370112,0.0267 0.370112,-0.11426 0,-0.14095 0.118157,-0.25627 0.262571,-0.25627 0.144414,0 0.557224,-0.2562 0.917355,-0.56933 0.360131,-0.31313 1.154819,-0.86751 1.765973,-1.23196 0.872219,-0.52013 1.075026,-0.5684 0.943033,-0.22443 -0.193246,0.50359 0.231176,0.60858 0.434501,0.10749 0.107102,-0.26396 0.181366,-0.26415 0.367816,-9.4e-4 0.12849,0.18139 0.64357,0.36821 1.144622,0.41515 0.501052,0.0469 0.885907,0.21196 0.855234,0.36668 -0.03067,0.15473 0.135105,0.26557 0.368398,0.24631 0.233292,-0.0193 0.472972,0.10272 0.532622,0.27106 0.109929,0.31024 -2.853171,2.08387 -7.201842,4.31081 -1.313313,0.67254 -2.679259,1.42692 -3.035434,1.6764 -0.722291,0.50591 -0.954387,0.52835 -1.720474,0.16634 z m 7.204383,-3.57677 c -0.08792,-0.0879 -0.316121,-0.0973 -0.507118,-0.0209 -0.211066,0.0845 -0.148372,0.14716 0.159853,0.15985 0.278915,0.0115 0.435184,-0.051 0.347265,-0.13896 z m 1.394388,-0.96463 c 2.53e-4,-0.26873 -0.57693,-0.24373 -1.032559,0.0447 -0.265669,0.16819 -0.17164,0.22349 0.330542,0.19438 0.386007,-0.0224 0.701914,-0.12998 0.702017,-0.23912 z m -0.898294,-1.71428 c -0.268953,-0.26895 -0.490867,0.13597 -0.270197,0.49302 0.166697,0.26972 0.229017,0.26993 0.318638,0.001 0.06128,-0.18383 0.03948,-0.40617 -0.04844,-0.49409 z m 2.828248,0.20085 c -0.245468,-0.28668 -0.499394,-0.46816 -0.564281,-0.40327 -0.157709,0.15771 0.490053,0.92452 0.780988,0.92452 0.126278,0 0.02876,-0.23457 -0.216707,-0.52125 z m -11.587058,4.48999 c -0.08994,-0.14552 -0.04446,-0.26458 0.101062,-0.26458 0.145521,0 0.338168,0.11906 0.428105,0.26458 0.08994,0.14553 0.04446,0.26459 -0.101062,0.26459 -0.145521,0 -0.338168,-0.11906 -0.428105,-0.26459 z M 25.55581,134.16184 c -0.01796,-2.29707 -0.07289,-5.0397 -0.122069,-6.09472 -0.04918,-1.05503 -0.04086,-1.91823 0.01849,-1.91823 0.347236,0 4.251722,2.70596 4.365058,3.02516 0.07524,0.21189 0.09989,1.75716 0.05478,3.43393 l -0.08202,3.04866 -1.348654,0.86852 c -0.74176,0.47769 -1.448992,0.83875 -1.571627,0.80237 -0.122636,-0.0364 -0.222973,0.0487 -0.222973,0.18913 0,0.1404 -0.238125,0.38272 -0.529167,0.53848 -0.518184,0.27732 -0.529844,0.19652 -0.561814,-3.8933 z m 2.017022,2.04122 c 0.08994,-0.14553 0.03743,-0.26459 -0.116677,-0.26459 -0.154109,0 -0.280198,0.11906 -0.280198,0.26459 0,0.14552 0.05251,0.26458 0.116677,0.26458 0.06417,0 0.190261,-0.11906 0.280198,-0.26458 z m 6.482291,-4.97652 c 0,-2.05994 0.140542,-2.3013 1.984375,-3.40779 0.727604,-0.43664 1.984118,-1.2178 2.792253,-1.7359 l 1.469337,-0.942 1.415068,0.89222 c 0.778288,0.49073 1.545836,0.9384 1.705663,0.99482 0.284328,0.10039 -0.833623,1.21149 -1.236431,1.22886 -0.112261,0.005 -0.648042,0.28912 -1.190625,0.63173 -4.026015,2.54217 -5.34437,3.34583 -5.48869,3.34583 -0.09121,0 -0.344425,0.17859 -0.562706,0.39687 -0.709629,0.70963 -0.888244,0.42717 -0.888244,-1.40464 z m -2.778124,-6.49492 c -1.179244,-0.68765 -3.449233,-2.1589 -4.960938,-3.21534 l -0.992187,-0.69338 v -2.2601 c 0,-1.85821 0.06774,-2.23412 0.380919,-2.11394 0.622021,0.2387 10.462431,6.381 10.453555,6.52503 -0.0081,0.13221 -3.533475,2.38409 -3.722862,2.37806 -0.05508,-0.002 -0.576404,-0.2809 -1.158487,-0.62033 z M 36.17179,80.239731 c -2.579846,-0.712395 -4.736768,-1.951573 -6.616579,-3.801305 -5.25562,-5.171523 -5.673922,-13.242703 -0.99903,-19.276398 1.70222,-2.196988 4.950545,-4.172616 8.870957,-5.395308 l 1.652223,-0.515293 1.919652,0.838335 c 3.144857,1.373397 6.921872,3.469666 10.133331,5.624068 1.679249,1.126521 1.735465,1.197684 1.180677,1.494598 -0.889482,0.476036 -3.462367,1.323799 -4.017613,1.323799 -0.271447,0 -1.676235,-0.718525 -3.121751,-1.596723 -3.655983,-2.221127 -5.420624,-2.994104 -6.446729,-2.823905 -3.076327,0.51027 -6.230185,2.67408 -7.680271,5.269305 -3.273357,5.858343 -0.345059,12.866448 6.124479,14.657322 1.923694,0.53251 3.82245,0.312147 5.957392,-0.691394 2.008235,-0.943982 4.420344,-3.559716 4.420344,-4.7935 0,-0.468181 -0.05664,-0.466059 -1.369182,0.0513 -2.397947,0.945183 -6.417323,1.850118 -7.391367,1.664117 -1.252049,-0.239089 -2.826534,-1.068921 -3.611073,-1.903216 -2.128426,-2.263412 -1.834235,-6.339658 0.612597,-8.488005 1.203314,-1.056524 2.944748,-1.884187 3.531806,-1.678585 0.987547,0.345862 4.271586,2.541513 4.07576,2.724982 -0.117791,0.110358 -1.2155,0.529411 -2.439353,0.931228 -1.223853,0.401818 -2.444244,0.949633 -2.711979,1.217369 -0.69147,0.69147 -0.616773,1.859939 0.165907,2.595228 0.947084,0.88974 2.393124,0.623734 7.076509,-1.301754 2.141013,-0.880238 4.115811,-1.600433 4.388442,-1.600433 0.700272,0 3.486219,1.903311 3.485523,2.38125 -0.0024,1.648329 -1.751551,6.289082 -2.958289,7.84877 -0.940175,1.215159 -2.928929,3.019989 -4.05477,3.679776 -2.905108,1.702506 -7.255708,2.371226 -10.177613,1.564375 z m 163.3802,0.144255 c -4.23758,-0.901408 -8.01437,-3.741363 -9.68692,-7.284051 -0.8453,-1.790489 -1.46581,-5.294158 -1.03049,-5.818681 0.36291,-0.437288 4.34712,-2.780277 4.7278,-2.780277 0.20507,0 0.30106,0.848401 0.30106,2.660962 0,3.674376 0.3417,4.849678 1.8478,6.355784 3.77382,3.773813 10.46076,2.962428 12.5846,-1.526998 0.37824,-0.799523 0.64146,-1.499919 0.58495,-1.556434 -0.0565,-0.05651 -1.40471,0.319568 -2.99599,0.835739 -3.53749,1.147475 -5.26488,1.153686 -6.97035,0.02506 l -1.08226,-0.716206 v -1.848329 c 0,-1.016581 0.0572,-1.848329 0.12706,-1.848329 0.0699,0 0.89987,0.317373 1.84443,0.705274 1.59238,0.653942 1.81903,0.682482 3.11409,0.392126 0.76819,-0.172231 2.72278,-0.952983 4.34353,-1.735005 l 2.94681,-1.421858 1.90752,1.131013 c 2.77331,1.644363 2.70016,1.524517 2.24845,3.683457 -0.78133,3.734337 -2.65997,6.560699 -5.71825,8.60294 -2.60656,1.740592 -6.58278,2.67796 -9.09384,2.143813 z m -55.43021,-3.872467 c -7.0908,-3.820429 -9.03013,-4.959228 -9.5321,-5.59738 -0.53501,-0.680156 -0.55443,-0.94472 -0.47382,-6.454785 l 0.084,-5.74556 0.76903,-0.802154 c 1.2187,-1.271179 10.09393,-6.36185 11.1071,-6.370825 0.54631,-0.0048 9.14889,4.633138 10.92493,5.890048 1.70528,1.206829 1.81372,1.686342 1.74539,7.717869 -0.0528,4.658243 -0.1149,5.331289 -0.52916,5.732114 -0.60415,0.584549 -11.39449,6.862093 -11.76718,6.845839 -0.0436,-0.0019 -1.09131,-0.548727 -2.32824,-1.215166 z m -1.5697,-9.735284 c 0.0643,-0.06433 1.78328,-0.02702 3.81989,0.0829 3.06861,0.165623 3.92956,0.306674 5.02585,0.823398 0.72761,0.342947 1.53408,0.717091 1.79216,0.831433 0.3201,0.141817 0.63546,0.04168 0.99219,-0.31505 0.46013,-0.46013 0.52294,-0.88777 0.52294,-3.560299 v -3.037356 l -1.38906,-0.796619 c -0.76398,-0.43814 -1.54212,-0.797736 -1.72919,-0.799102 -0.18708,-0.0014 -0.56449,0.520917 -0.8387,1.160628 -0.62696,1.462629 -1.66335,1.870618 -4.27683,1.683625 -1.40529,-0.100548 -2.31767,-0.373547 -4.08901,-1.223498 -2.61374,-1.25416 -3.09865,-1.32103 -3.66949,-0.506033 -0.53153,0.758868 -0.59639,6.476429 -0.0812,7.154243 0.1819,0.239298 1.0451,0.862268 1.91823,1.384378 l 1.5875,0.94929 0.14885,-1.857492 c 0.0819,-1.02162 0.20149,-1.910123 0.26582,-1.974449 z m -53.595918,7.229604 c -1.74625,-1.013181 -4.097734,-2.385328 -5.22552,-3.049216 L 81.680121,69.749555 V 65.158908 60.56826 l 0.751497,-0.535113 c 0.413324,-0.294312 2.764808,-1.734832 5.225521,-3.201154 2.931941,-1.747125 4.672359,-2.631595 5.049452,-2.566103 0.593243,0.103032 9.557769,5.139037 10.583979,5.945763 0.67225,0.528474 0.70762,0.834655 0.65445,5.665851 l -0.0399,3.625486 -4.564063,2.6941 c -2.510235,1.481754 -4.935304,2.916145 -5.389042,3.187534 -0.453739,0.27139 -1.049052,0.486669 -1.322917,0.478399 -0.273865,-0.0083 -1.926687,-0.844003 -3.672936,-1.857184 z m 5.173721,-3.37014 c 0.646953,-0.409444 2.009716,-1.198167 3.028362,-1.752718 1.018646,-0.554552 2.000912,-1.127099 2.182813,-1.272328 0.219691,-0.175402 0.330729,-1.048678 0.330729,-2.601091 v -2.337037 l -1.918229,-1.110107 c -1.055026,-0.610559 -2.376318,-1.399151 -2.936204,-1.752427 -1.692122,-1.067691 -2.466551,-1.053822 -4.414768,0.07906 -0.941054,0.54722 -2.395616,1.456015 -3.232361,2.019544 l -1.521354,1.024597 0.0041,2.172954 c 0.0022,1.195124 0.09601,2.317665 0.208399,2.494534 0.11239,0.176869 1.45002,0.993829 2.97251,1.815466 1.522491,0.821637 2.881274,1.59966 3.019519,1.72894 0.430516,0.402599 1.057025,0.262413 2.276533,-0.509389 z m -3.255492,-4.565237 c -1.317219,-0.695384 -1.339144,-1.542502 -0.06507,-2.514283 l 0.927114,-0.707144 1.445186,0.627533 c 1.842329,0.799982 2.648923,1.397801 2.409228,1.785635 -0.313597,0.50741 -2.199815,1.356203 -2.986123,1.343747 -0.405979,-0.0064 -1.184629,-0.247401 -1.730332,-0.535488 z M 200.52643,63.716917 c -0.62822,-0.290879 -2.25871,-1.185962 -3.62331,-1.989072 -1.3646,-0.803111 -2.66837,-1.460201 -2.89727,-1.460201 -0.22889,0 -1.47221,0.595312 -2.76293,1.322916 -1.29072,0.727604 -2.41975,1.322917 -2.50895,1.322917 -0.0892,0 -0.16219,-2.443201 -0.16219,-5.429336 v -5.429335 l 0.99219,0.506663 c 2.44531,1.248704 16.47031,9.867988 16.47031,10.122089 0,0.224309 -2.56993,1.248559 -3.57188,1.423578 -0.49502,0.08647 -1.22363,-0.06039 -1.93597,-0.390219 z m 8.93478,-3.805408 c -2.24862,-1.360041 -5.24256,-3.145938 -6.65322,-3.968662 -1.41066,-0.822723 -2.8801,-1.767042 -3.26543,-2.098488 l -0.7006,-0.602628 1.33287,-1.246739 c 0.93181,-0.871598 1.4765,-1.199102 1.81022,-1.088422 0.26254,0.08708 2.14423,0.971198 4.18152,1.964718 4.28462,2.089465 6.06166,3.598147 7.30962,6.205731 0.80274,1.67732 1.00815,3.307291 0.41679,3.307291 -0.18886,0 -2.18316,-1.11276 -4.43177,-2.472801 z m 59.41161,-2.289699 c 0.0899,-0.14552 0.28258,-0.264583 0.4281,-0.264583 0.14552,0 0.191,0.119063 0.10106,0.264583 -0.0899,0.145521 -0.28258,0.264584 -0.4281,0.264584 -0.14552,0 -0.191,-0.119063 -0.10106,-0.264584 z m -0.1323,-0.81852 c 0,-0.131897 0.14883,-0.244032 0.33073,-0.249189 0.1819,-0.0052 0.075,-0.153984 -0.23753,-0.330729 -0.48172,-0.272413 -0.51194,-0.37331 -0.19844,-0.662514 0.3043,-0.280712 0.36983,-0.268992 0.36983,0.06615 0,0.923056 0.50678,0.321759 0.60444,-0.717173 0.0847,-0.901381 0.10603,-0.826679 0.10735,0.376518 10e-4,1.238205 -0.084,1.523385 -0.48737,1.628875 -0.26895,0.07033 -0.48901,0.01996 -0.48901,-0.111934 z m -1.5875,-1.298146 c 0,-0.145521 0.11907,-0.264584 0.26459,-0.264584 0.14552,0 0.26458,0.119063 0.26458,0.264584 0,0.145521 -0.11906,0.264583 -0.26458,0.264583 -0.14552,0 -0.26459,-0.119062 -0.26459,-0.264583 z m -0.91088,-0.375243 c 0.28225,-0.206383 0.56945,-0.318972 0.63822,-0.250197 0.14562,0.145616 -0.53666,0.615438 -0.90238,0.621388 -0.13696,0.0022 -0.0181,-0.164807 0.26416,-0.371191 z m 1.12586,-0.599248 c 0.19099,-0.07643 0.4192,-0.06703 0.50712,0.02089 0.0879,0.08792 -0.0684,0.150453 -0.34727,0.138965 -0.30822,-0.0127 -0.37092,-0.07539 -0.15985,-0.159853 z m 0.88732,-0.315657 c -0.29043,-0.184104 -0.28653,-0.249186 0.0221,-0.367598 0.21389,-0.08208 0.37496,0.01576 0.37496,0.227763 0,0.204407 -0.01,0.369826 -0.0221,0.367598 -0.0121,-0.0022 -0.18086,-0.104722 -0.37496,-0.227763 z"
         id="path5"
         clip-path="url(#clipPath3)"
         transform="translate(-43.18416,-24.803272)" /></clipPath></defs><g
     inkscape:label="Layer 1"
     inkscape:groupmode="layer"
     id="layer1"
     transform="translate(17.883503,-26.395969)"><rect
       style="opacity:1;fill:#ef233c;fill-opacity:1;stroke-width:0.267261"
       id="rect5"
       width="28.408106"
       height="29.590658"
       x="-17.883503"
       y="26.395969"
       clip-path="url(#clipPath5)" /></g></svg>
